<svg xmlns="http://www.w3.org/2000/svg" viewBox="0 0 369.74 175.64"><defs><style>.cls-1{fill:#1e34c9;}.cls-2{fill:none;stroke:#6266d4;stroke-miterlimit:10;stroke-width:4px;}</style></defs><title>Asset 14</title><g id="Layer_2" data-name="Layer 2"><g id="Layer_1-2" data-name="Layer 1"><path class="cls-1" d="M44.61,0H57.14V73.12H44.61V41.68H13.38V73.12H.84V0H13.38V29.77H44.61Z"/><path class="cls-1" d="M71.13,55.67V23.61H83.67V52.23c0,7.31,3.44,10.44,9.81,10.44s9.82-6.06,9.82-6.06v-33h12.54V73.12h-11.7V65.91s-4.7,8.46-14.83,8.46C79.8,74.37,71.13,67.58,71.13,55.67Z"/><path class="cls-1" d="M203.16,41.26V73.12H190.62V44.5c0-6.79-2.61-10.45-8.88-10.45-6.58,0-9.71,6.37-9.71,6.37v32.7H159.49V44.5c0-6.79-2.61-10.45-8.87-10.45-6.59,0-9.72,6.37-9.72,6.37v32.7H128.37V23.61h11.69v7.2s4.5-8.46,14.63-8.46C166.6,22.35,170,31,170,31s4.18-8.67,15.78-8.67C195.84,22.35,203.16,29.35,203.16,41.26Z"/><path class="cls-1" d="M259.13,40.84V73.12H247.54V66.85s-5.12,7.52-16.29,7.52c-9.3,0-17.87-6.06-17.87-16.61,0-9.5,8.67-16.4,19.43-16.4,9.09,0,13.79,3.56,13.79,3.56V42.09c0-6.47-6.27-8.56-10.65-8.56-7.21,0-14.84,3.66-14.84,3.66L217,26.84a50.14,50.14,0,0,1,19.53-4.49C250.78,22.35,259.13,29.56,259.13,40.84ZM246.6,58.18V53.06a25.08,25.08,0,0,0-11.28-2.5c-3.87,0-9.19,1.67-9.19,7s5.12,6.38,9,6.38A14.68,14.68,0,0,0,246.6,58.18Z"/><path class="cls-1" d="M316.37,41.05V73.12H303.83V44.18c0-7.1-4.38-10.13-9.81-10.13-6.48,0-9.82,6.37-9.82,6.37v32.7H271.66V23.61h11.7v7.2a17.11,17.11,0,0,1,14.83-8.46C307.8,22.35,316.37,29.14,316.37,41.05Z"/><path class="cls-1" d="M332.76,56.3s6.58,7.1,14.94,7.1c5.12,0,9.4-1.46,9.4-4.49,0-3.24-2.3-3.86-9.82-5.43-9.82-2.09-18.38-6.27-18.38-15.67,0-7.73,7.72-15.46,21.31-15.46a31.6,31.6,0,0,1,18.59,6.06l-6.27,9.19s-5.64-4.28-12.32-4.28c-4.7,0-9,1.67-9,4.7s3.34,3.76,11.7,5.54c9.82,2.09,16.82,5.32,16.82,15.56,0,8.46-9,15.25-21.62,15.25-14.52,0-22.36-9-22.36-9Z"/><path class="cls-1" d="M106.85,113.17H86.69V101.26h52.86v11.91H119.39v61.21H106.85Z"/><path class="cls-1" d="M186.86,149.42c0,.94,0,2.82-.11,4.7h-37c.94,4.39,6.05,10,13.89,10a19.92,19.92,0,0,0,13.58-5l6.27,9.4a31.72,31.72,0,0,1-19.85,7.11c-15,0-26.64-11.49-26.64-26s10.55-26,24.87-26C175.47,123.62,186.86,134.17,186.86,149.42ZM174.33,145c-.22-4.28-4.18-10-12.43-10-8.05,0-11.7,5.64-12.12,10Z"/><path class="cls-1" d="M231.56,157.88l8.25,8.35a26.78,26.78,0,0,1-20.47,9.41c-14.83,0-26.64-11.49-26.64-26s11.81-26,26.64-26a26.54,26.54,0,0,1,20.26,9.19l-8.67,7.73a15.38,15.38,0,0,0-11.59-5.22c-8.46,0-13.9,6.58-13.9,14.31s5.44,14.31,13.9,14.31A14.62,14.62,0,0,0,231.56,157.88Z"/><path class="cls-1" d="M294.12,142.32v32.06H281.59V145.45c0-7.1-4.39-10.13-9.82-10.13-6.48,0-9.82,6.47-9.82,6.47v32.59H249.42v-79H262v35.41a16.81,16.81,0,0,1,14-7.21C285.56,123.62,294.12,130.41,294.12,142.32Z"/><path class="cls-1" d="M3.77,89.9a3.77,3.77,0,0,1,0,7.54,3.77,3.77,0,0,1,0-7.54ZM1,103.45H6.55V134H1Z"/><path class="cls-1" d="M42.07,114.37V134H36.51V115.29c0-5.22-3.24-7.47-7.34-7.47-5,0-7.61,5.16-7.61,5.16v21H16V103.45h5.16v4.3a10.85,10.85,0,0,1,9.39-5.09C36.64,102.66,42.07,106.83,42.07,114.37Z"/><line class="cls-2" x1="1.09" y1="146.8" x2="42.09" y2="146.8"/></g></g></svg>