<svg xmlns="http://www.w3.org/2000/svg" viewBox="0 0 741.29 337.85"><defs><style>.cls-1,.cls-16,.cls-17,.cls-18,.cls-19,.cls-2,.cls-20,.cls-21,.cls-22,.cls-23,.cls-24,.cls-25,.cls-26,.cls-4,.cls-7{fill:none;stroke-miterlimit:10;}.cls-1,.cls-16,.cls-17,.cls-18,.cls-19,.cls-2,.cls-4,.cls-7{stroke:#d7e59f;}.cls-1,.cls-16,.cls-17,.cls-18,.cls-19,.cls-2,.cls-20,.cls-21,.cls-22,.cls-23,.cls-24,.cls-25,.cls-4,.cls-7{stroke-width:3px;}.cls-2{stroke-dasharray:5.02 5.02;}.cls-3{font-size:25px;}.cls-12,.cls-3{font-family:Europa-Bold, Europa-Bold;font-weight:700;}.cls-4{stroke-dasharray:4.83 4.83;}.cls-5{font-size:20px;font-family:Europa-Light, Europa-Light;}.cls-6{letter-spacing:-0.01em;}.cls-7{stroke-dasharray:5.05 5.05;}.cls-8{letter-spacing:-0.01em;}.cls-9{letter-spacing:-0.01em;}.cls-10{letter-spacing:0em;}.cls-11{letter-spacing:-0.01em;}.cls-12{font-size:24.89px;}.cls-13{letter-spacing:-0.02em;}.cls-14{letter-spacing:-0.01em;}.cls-15{letter-spacing:0em;}.cls-16{stroke-dasharray:4.57 4.57;}.cls-17{stroke-dasharray:5.09 5.09;}.cls-18{stroke-dasharray:4.95 4.95;}.cls-19{stroke-dasharray:4.97 4.97;}.cls-20,.cls-21,.cls-22,.cls-23,.cls-24,.cls-25{stroke:#00a778;}.cls-21{stroke-dasharray:5.26 5.26;}.cls-22{stroke-dasharray:4.95 4.95;}.cls-23{stroke-dasharray:4.8 4.8;}.cls-24{stroke-dasharray:4.99 4.99;}.cls-25{stroke-dasharray:4.94 4.94;}.cls-26{stroke:#f1c077;stroke-width:2px;}</style></defs><title>Asset 5</title><g id="Layer_2" data-name="Layer 2"><g id="Layer_1-2" data-name="Layer 1"><line class="cls-1" x1="167.72" y1="36.24" x2="167.25" y2="38.7"/><line class="cls-2" x1="166.31" y1="43.62" x2="136.73" y2="198.85"/><line class="cls-1" x1="136.26" y1="201.32" x2="135.79" y2="203.77"/><text class="cls-3" transform="translate(131.81 21.25)">community</text><line class="cls-1" x1="197.57" y1="33.82" x2="198.39" y2="36.18"/><line class="cls-4" x1="199.97" y1="40.75" x2="240.18" y2="157.13"/><line class="cls-1" x1="240.97" y1="159.41" x2="241.79" y2="161.77"/><text class="cls-3" transform="translate(461.81 22.45)">humanity</text><text class="cls-5" transform="translate(4.97 81.39)">mento<tspan class="cls-6" x="54.34" y="0">r</tspan><tspan x="60.68" y="0">ship</tspan></text><text class="cls-5" transform="translate(23.97 201.02)">inclusivity</text><line class="cls-1" x1="219.79" y1="37.77" x2="221" y2="39.96"/><line class="cls-7" x1="223.44" y1="44.38" x2="305.36" y2="192.38"/><line class="cls-1" x1="306.58" y1="194.58" x2="307.79" y2="196.77"/><text class="cls-5" transform="translate(254.97 84.02)">net<tspan class="cls-8" x="28.26" y="0">w</tspan><tspan x="42.98" y="0">orking</tspan></text><text class="cls-5" transform="translate(155.97 145.2)">support</text><text class="cls-5" transform="translate(210.97 181.2)">di<tspan class="cls-6" x="15.82" y="0">v</tspan><tspan x="25.02" y="0">e</tspan><tspan class="cls-9" x="35.38" y="0">r</tspan><tspan class="cls-10" x="41.72" y="0">sity</tspan></text><text class="cls-5" transform="translate(109.28 225.2)"><tspan class="cls-11">r</tspan><tspan x="6.3" y="0">ecip</tspan><tspan class="cls-11" x="41.76" y="0">r</tspan><tspan x="48.06" y="0">ocity</tspan></text><text class="cls-5" transform="translate(269.28 216.2)">open sou<tspan class="cls-11" x="77.92" y="0">r</tspan><tspan x="84.22" y="0">ce</tspan></text><text class="cls-12" transform="translate(273.45 296.08)"><tspan class="cls-13">w</tspan><tspan x="18.71" y="0">orking better </tspan><tspan x="35.26" y="29.86">together</tspan></text><text class="cls-5" transform="translate(374.28 82.2)">purpose</text><text class="cls-5" transform="translate(386.28 178.2)">vulne<tspan class="cls-6" x="45.08" y="0">r</tspan><tspan x="51.42" y="0">ability</tspan></text><text class="cls-5" transform="translate(509.28 122.2)">empathy</text><text class="cls-5" transform="translate(596.38 181.2)">ps<tspan class="cls-14" x="19.96" y="0">y</tspan><tspan class="cls-15" x="29.58" y="0">chological </tspan><tspan x="31.45" y="24">sa</tspan><tspan class="cls-14" x="50.49" y="24">f</tspan><tspan class="cls-15" x="56.79" y="24">ety</tspan></text><text class="cls-5" transform="translate(628.28 91.43)">authenticity</text><line class="cls-1" x1="124.29" y1="32.27" x2="122.39" y2="33.9"/><line class="cls-16" x1="118.92" y1="36.87" x2="92.92" y2="59.16"/><line class="cls-1" x1="91.19" y1="60.64" x2="89.29" y2="62.27"/><line class="cls-1" x1="183.72" y1="34.24" x2="183.61" y2="36.74"/><line class="cls-17" x1="183.39" y1="41.83" x2="180" y2="120.73"/><line class="cls-1" x1="179.9" y1="123.27" x2="179.79" y2="125.77"/><line class="cls-1" x1="183.72" y1="34.24" x2="183.61" y2="36.74"/><line class="cls-17" x1="183.39" y1="41.83" x2="180" y2="120.73"/><line class="cls-1" x1="179.9" y1="123.27" x2="179.79" y2="125.77"/><line class="cls-1" x1="234.79" y1="33.77" x2="236.5" y2="35.59"/><line class="cls-18" x1="239.9" y1="39.19" x2="265.37" y2="66.16"/><line class="cls-1" x1="267.07" y1="67.95" x2="268.79" y2="69.77"/><line class="cls-1" x1="148.72" y1="33.24" x2="147.52" y2="35.44"/><line class="cls-19" x1="145.14" y1="39.8" x2="70.17" y2="177.39"/><line class="cls-1" x1="68.98" y1="179.58" x2="67.79" y2="181.77"/><line class="cls-20" x1="457.13" y1="35.03" x2="455.32" y2="36.75"/><line class="cls-21" x1="451.5" y1="40.36" x2="430.51" y2="60.24"/><line class="cls-20" x1="428.6" y1="62.05" x2="426.79" y2="63.77"/><line class="cls-20" x1="519.79" y1="37.77" x2="520.65" y2="40.12"/><line class="cls-22" x1="522.37" y1="44.76" x2="542.07" y2="98.11"/><line class="cls-20" x1="542.92" y1="100.43" x2="543.79" y2="102.77"/><line class="cls-20" x1="480.79" y1="37.77" x2="479.97" y2="40.13"/><line class="cls-23" x1="478.39" y1="44.66" x2="441.4" y2="151.14"/><line class="cls-20" x1="440.61" y1="153.41" x2="439.79" y2="155.77"/><line class="cls-20" x1="556.79" y1="39.77" x2="558.24" y2="41.81"/><line class="cls-24" x1="561.14" y1="45.87" x2="640.89" y2="157.7"/><line class="cls-20" x1="642.34" y1="159.74" x2="643.79" y2="161.77"/><line class="cls-20" x1="576.79" y1="34.77" x2="578.78" y2="36.29"/><line class="cls-25" x1="582.7" y1="39.29" x2="627.84" y2="73.76"/><line class="cls-20" x1="629.8" y1="75.25" x2="631.79" y2="76.77"/><line class="cls-26" x1="0.29" y1="226.27" x2="259.29" y2="304.27"/><line class="cls-26" x1="715.29" y1="228.27" x2="460.29" y2="307.27"/></g></g></svg>