<svg xmlns="http://www.w3.org/2000/svg" viewBox="0 0 736.4 252.56"><defs><style>.cls-1,.cls-14,.cls-15,.cls-16,.cls-17,.cls-18,.cls-19,.cls-2,.cls-20,.cls-21,.cls-22,.cls-23,.cls-24,.cls-25,.cls-4,.cls-7{fill:none;stroke-miterlimit:10;stroke-width:3px;}.cls-1,.cls-14,.cls-17,.cls-18,.cls-19,.cls-2,.cls-4,.cls-7{stroke:#1e34c9;}.cls-2{stroke-dasharray:5.02 5.02;}.cls-3{font-size:25px;font-family:Europa-Bold, Europa-Bold;font-weight:700;}.cls-4{stroke-dasharray:4.83 4.83;}.cls-5{font-size:20px;font-family:Europa-Light, Europa-Light;}.cls-6{letter-spacing:-0.01em;}.cls-7{stroke-dasharray:5.05 5.05;}.cls-8{letter-spacing:-0.01em;}.cls-9{letter-spacing:-0.01em;}.cls-10{letter-spacing:0em;}.cls-11{letter-spacing:-0.01em;}.cls-12{letter-spacing:-0.01em;}.cls-13{letter-spacing:0em;}.cls-14{stroke-dasharray:4.57 4.57;}.cls-15,.cls-16{stroke:#d6e49e;}.cls-16,.cls-17{stroke-dasharray:5.09 5.09;}.cls-18{stroke-dasharray:4.95 4.95;}.cls-19{stroke-dasharray:5.04 5.04;}.cls-20,.cls-21,.cls-22,.cls-23,.cls-24,.cls-25{stroke:#ef5f45;}.cls-21{stroke-dasharray:5.26 5.26;}.cls-22{stroke-dasharray:4.95 4.95;}.cls-23{stroke-dasharray:4.8 4.8;}.cls-24{stroke-dasharray:4.99 4.99;}.cls-25{stroke-dasharray:4.94 4.94;}</style></defs><title>Asset 7</title><g id="Layer_2" data-name="Layer 2"><g id="Layer_1-2" data-name="Layer 1"><line class="cls-1" x1="162.83" y1="36.07" x2="162.36" y2="38.52"/><line class="cls-2" x1="161.42" y1="43.45" x2="131.84" y2="198.68"/><line class="cls-1" x1="131.37" y1="201.14" x2="130.9" y2="203.6"/><text class="cls-3" transform="translate(112.92 21.25)">community</text><line class="cls-1" x1="192.69" y1="33.65" x2="193.5" y2="36.01"/><line class="cls-4" x1="195.08" y1="40.57" x2="235.3" y2="156.95"/><line class="cls-1" x1="236.09" y1="159.23" x2="236.9" y2="161.6"/><text class="cls-3" transform="translate(457.92 22.38)">humanity</text><text class="cls-5" transform="translate(0.09 81.22)">mento<tspan class="cls-6" x="54.34" y="0">r</tspan><tspan x="60.68" y="0">ship</tspan></text><text class="cls-5" transform="translate(19.09 171.84)">inclusivity</text><line class="cls-1" x1="214.9" y1="37.6" x2="216.11" y2="39.78"/><line class="cls-7" x1="218.56" y1="44.2" x2="300.47" y2="192.2"/><line class="cls-1" x1="301.69" y1="194.41" x2="302.9" y2="196.6"/><text class="cls-5" transform="translate(250.09 83.84)">net<tspan class="cls-8" x="28.26" y="0">w</tspan><tspan x="42.98" y="0">orking</tspan></text><text class="cls-5" transform="translate(151.09 145.03)">support</text><text class="cls-5" transform="translate(206.09 181.03)">di<tspan class="cls-6" x="15.82" y="0">v</tspan><tspan x="25.02" y="0">e</tspan><tspan class="cls-9" x="35.38" y="0">r</tspan><tspan class="cls-10" x="41.72" y="0">sity</tspan></text><text class="cls-5" transform="translate(104.4 225.03)"><tspan class="cls-11">r</tspan><tspan x="6.3" y="0">ecip</tspan><tspan class="cls-11" x="41.76" y="0">r</tspan><tspan x="48.06" y="0">ocity</tspan></text><text class="cls-5" transform="translate(264.4 216.03)">open sou<tspan class="cls-11" x="77.92" y="0">r</tspan><tspan x="84.22" y="0">ce</tspan></text><text class="cls-5" transform="translate(369.4 82.03)">purpose</text><text class="cls-5" transform="translate(381.4 178.03)">vulne<tspan class="cls-6" x="45.08" y="0">r</tspan><tspan x="51.42" y="0">ability</tspan></text><text class="cls-5" transform="translate(504.4 122.03)">empathy</text><text class="cls-5" transform="translate(591.5 181.03)">ps<tspan class="cls-12" x="19.96" y="0">y</tspan><tspan class="cls-13" x="29.58" y="0">chological </tspan><tspan x="31.45" y="24">sa</tspan><tspan class="cls-12" x="50.49" y="24">f</tspan><tspan class="cls-13" x="56.79" y="24">ety</tspan></text><text class="cls-5" transform="translate(623.4 91.26)">authenticity</text><line class="cls-1" x1="119.4" y1="32.1" x2="117.51" y2="33.72"/><line class="cls-14" x1="114.04" y1="36.7" x2="88.04" y2="58.98"/><line class="cls-1" x1="86.3" y1="60.47" x2="84.4" y2="62.1"/><line class="cls-15" x1="178.83" y1="34.07" x2="178.72" y2="36.57"/><line class="cls-16" x1="178.5" y1="41.66" x2="175.12" y2="120.55"/><line class="cls-15" x1="175.01" y1="123.1" x2="174.9" y2="125.6"/><line class="cls-1" x1="178.83" y1="34.07" x2="178.72" y2="36.57"/><line class="cls-17" x1="178.5" y1="41.66" x2="175.12" y2="120.55"/><line class="cls-1" x1="175.01" y1="123.1" x2="174.9" y2="125.6"/><line class="cls-1" x1="229.9" y1="33.6" x2="231.62" y2="35.42"/><line class="cls-18" x1="235.02" y1="39.01" x2="260.49" y2="65.98"/><line class="cls-1" x1="262.19" y1="67.78" x2="263.9" y2="69.6"/><line class="cls-1" x1="143.83" y1="33.07" x2="142.55" y2="35.22"/><line class="cls-19" x1="139.98" y1="39.55" x2="79.47" y2="141.28"/><line class="cls-1" x1="78.18" y1="143.45" x2="76.9" y2="145.6"/><line class="cls-20" x1="452.25" y1="34.85" x2="450.43" y2="36.57"/><line class="cls-21" x1="446.62" y1="40.19" x2="425.63" y2="60.07"/><line class="cls-20" x1="423.72" y1="61.88" x2="421.9" y2="63.6"/><line class="cls-20" x1="514.9" y1="37.6" x2="515.77" y2="39.94"/><line class="cls-22" x1="517.48" y1="44.58" x2="537.18" y2="97.93"/><line class="cls-20" x1="538.04" y1="100.25" x2="538.9" y2="102.6"/><line class="cls-20" x1="475.9" y1="37.6" x2="475.08" y2="39.96"/><line class="cls-23" x1="473.51" y1="44.49" x2="436.51" y2="150.97"/><line class="cls-20" x1="435.72" y1="153.24" x2="434.9" y2="155.6"/><line class="cls-20" x1="551.9" y1="39.6" x2="553.35" y2="41.63"/><line class="cls-24" x1="556.25" y1="45.7" x2="636" y2="157.53"/><line class="cls-20" x1="637.45" y1="159.56" x2="638.9" y2="161.6"/><line class="cls-20" x1="571.9" y1="34.6" x2="573.89" y2="36.11"/><line class="cls-25" x1="577.82" y1="39.11" x2="622.95" y2="73.58"/><line class="cls-20" x1="624.92" y1="75.08" x2="626.9" y2="76.6"/></g></g></svg>